<svg width="384" height="83" viewBox="0 0 384 83" fill="none" xmlns="http://www.w3.org/2000/svg">
<path d="M81.4492 31.9961C81.6445 31.8529 81.8529 31.7617 82.0742 31.7227L92.7578 58.4023C92.888 58.7279 93.1029 59.0078 93.4023 59.2422C93.7018 59.4635 94.0729 59.6393 94.5156 59.7695C94.9714 59.8867 95.362 59.9779 95.6875 60.043C96.026 60.0951 96.4362 60.1471 96.918 60.1992C96.9701 60.4076 96.9961 60.5833 96.9961 60.7266C96.9961 60.8828 96.9701 61.026 96.918 61.1562C94.1055 61.0521 92.0026 61 90.6094 61C89.099 61 86.9115 61.0521 84.0469 61.1562C83.9948 61 83.9688 60.8438 83.9688 60.6875C83.9688 60.5182 83.9948 60.3555 84.0469 60.1992C86.6771 59.9128 87.9922 59.418 87.9922 58.7148C87.9922 58.4935 87.9661 58.2656 87.9141 58.0312L85.082 50.7656C84.2227 50.7396 83.0638 50.7266 81.6055 50.7266C80.9154 50.7266 79.125 50.7526 76.2344 50.8047L73.2461 58.4023V58.6367C73.2461 58.7669 73.2656 58.8906 73.3047 59.0078C73.3568 59.125 73.4349 59.2292 73.5391 59.3203C73.6562 59.4115 73.7669 59.4896 73.8711 59.5547C73.9753 59.6198 74.1185 59.6849 74.3008 59.75C74.4961 59.8021 74.6589 59.8477 74.7891 59.8867C74.9323 59.9128 75.1211 59.9453 75.3555 59.9844C75.6029 60.0234 75.7917 60.056 75.9219 60.082C76.0521 60.0951 76.2409 60.1146 76.4883 60.1406C76.7487 60.1667 76.931 60.1862 77.0352 60.1992C77.0872 60.4076 77.1133 60.5833 77.1133 60.7266C77.1133 60.8047 77.0872 60.9479 77.0352 61.1562C74.1185 61.0521 72.4779 61 72.1133 61C71.4102 61 69.6003 61.0521 66.6836 61.1562C66.6315 61 66.6055 60.8438 66.6055 60.6875C66.6055 60.5182 66.6315 60.3555 66.6836 60.1992C69.3919 59.8867 70.9349 59.2227 71.3125 58.207L79.7109 37.0352L79.2812 35.8828C80.0234 35.388 80.5378 34.8542 80.8242 34.2812C81.1237 33.7083 81.332 32.9466 81.4492 31.9961ZM81.6055 49.2031C82.8034 49.2031 83.7474 49.1901 84.4375 49.1641L80.7266 39.5547H80.6484L76.918 49.125C78.1419 49.1771 79.7044 49.2031 81.6055 49.2031ZM98.9492 43.6758C99.418 43.7018 99.8867 43.7279 100.355 43.7539C100.824 43.7799 101.195 43.7995 101.469 43.8125C101.742 43.8255 101.996 43.832 102.23 43.832C102.426 43.832 102.654 43.8255 102.914 43.8125C103.174 43.7995 103.526 43.7799 103.969 43.7539C104.424 43.7279 104.861 43.7018 105.277 43.6758C105.512 43.7539 105.701 43.9557 105.844 44.2812C105.831 44.3854 105.805 44.5417 105.766 44.75C105.74 44.9453 105.714 45.1862 105.688 45.4727C105.674 45.7461 105.668 46.0846 105.668 46.4883L105.629 55.7656C105.629 58.1094 106.339 59.2812 107.758 59.2812C109.073 59.2812 110.941 58.4154 113.363 56.6836C113.363 52.8034 113.305 49.4049 113.188 46.4883C113.188 46.2539 113.142 46.0456 113.051 45.8633C112.96 45.681 112.816 45.5247 112.621 45.3945C112.439 45.2643 112.27 45.1602 112.113 45.082C111.97 44.9909 111.755 44.9128 111.469 44.8477C111.182 44.7695 110.98 44.724 110.863 44.7109C110.746 44.6849 110.551 44.6458 110.277 44.5938C110.225 44.3854 110.199 44.2292 110.199 44.125C110.199 44.0339 110.225 43.8841 110.277 43.6758C110.733 43.7018 111.195 43.7279 111.664 43.7539C112.146 43.7799 112.523 43.7995 112.797 43.8125C113.07 43.8255 113.324 43.832 113.559 43.832C113.754 43.832 113.982 43.8255 114.242 43.8125C114.503 43.7995 114.854 43.7799 115.297 43.7539C115.753 43.7279 116.189 43.7018 116.605 43.6758C116.671 43.7148 116.723 43.7539 116.762 43.793C116.814 43.819 116.853 43.8581 116.879 43.9102C116.918 43.9492 116.944 43.9818 116.957 44.0078C116.97 44.0208 116.99 44.0664 117.016 44.1445C117.042 44.2096 117.061 44.2552 117.074 44.2812C116.97 44.9844 116.918 45.7201 116.918 46.4883C116.84 48.4023 116.801 49.9583 116.801 51.1562C116.801 51.7812 116.814 52.8294 116.84 54.3008C116.866 55.7721 116.879 57.0612 116.879 58.168C117.621 58.5977 118.871 58.8646 120.629 58.9688C120.694 59.2943 120.727 59.4635 120.727 59.4766C120.727 59.5547 120.694 59.6914 120.629 59.8867C118.168 60.1211 115.967 60.6549 114.027 61.4883C113.689 61.3451 113.467 61.1693 113.363 60.9609V57.9141C112.061 59.0339 110.831 59.9258 109.672 60.5898C108.526 61.2409 107.367 61.5664 106.195 61.5664C104.711 61.5664 103.656 61.1497 103.031 60.3164C102.419 59.4831 102.1 58.1745 102.074 56.3906L101.918 46.4883C101.892 46.1888 101.833 45.9674 101.742 45.8242C101.664 45.668 101.527 45.5247 101.332 45.3945C101.15 45.2643 100.98 45.1602 100.824 45.082C100.668 44.9909 100.447 44.9128 100.16 44.8477C99.8737 44.7695 99.6719 44.724 99.5547 44.7109C99.4375 44.6849 99.2357 44.6458 98.9492 44.5938C98.8971 44.3854 98.8711 44.2292 98.8711 44.125C98.8711 44.0339 98.8971 43.8841 98.9492 43.6758ZM139.379 55.9219C139.691 55.987 139.945 56.1302 140.141 56.3516C139.49 58.0964 138.48 59.4049 137.113 60.2773C135.746 61.1367 134.262 61.5664 132.66 61.5664C131.866 61.5664 131.091 61.4622 130.336 61.2539C129.581 61.0586 128.845 60.7331 128.129 60.2773C127.426 59.8216 126.807 59.2617 126.273 58.5977C125.753 57.9206 125.329 57.0807 125.004 56.0781C124.691 55.0625 124.535 53.9427 124.535 52.7188C124.535 49.8932 125.401 47.6081 127.133 45.8633C128.865 44.1185 131.026 43.2461 133.617 43.2461C135.44 43.2461 136.924 43.6432 138.07 44.4375C139.229 45.2188 139.809 46.2214 139.809 47.4453C139.809 48.1354 139.581 48.7083 139.125 49.1641C138.669 49.6198 138.109 49.8477 137.445 49.8477C136.742 49.8477 136.176 49.6458 135.746 49.2422C135.316 48.8255 135.102 48.3438 135.102 47.7969C135.102 46.8073 135.603 46.1823 136.605 45.9219C136.514 45.6224 136.221 45.3164 135.727 45.0039C135.232 44.6784 134.529 44.5156 133.617 44.5156C133.148 44.5156 132.706 44.5742 132.289 44.6914C131.872 44.7956 131.423 45.0234 130.941 45.375C130.473 45.7266 130.069 46.1888 129.73 46.7617C129.405 47.3346 129.132 48.1354 128.91 49.1641C128.689 50.1797 128.578 51.3646 128.578 52.7188C128.578 53.6302 128.669 54.457 128.852 55.1992C129.047 55.9414 129.346 56.612 129.75 57.2109C130.154 57.8099 130.707 58.2786 131.41 58.6172C132.113 58.9557 132.94 59.125 133.891 59.125C134.49 59.125 135.056 59.0469 135.59 58.8906C136.124 58.7214 136.553 58.5456 136.879 58.3633C137.217 58.181 137.576 57.9076 137.953 57.543C138.344 57.1654 138.604 56.8984 138.734 56.7422C138.865 56.5729 139.079 56.2995 139.379 55.9219ZM148.383 39.9258C148.513 39.8737 148.663 39.8477 148.832 39.8477C149.001 39.8477 149.177 39.8737 149.359 39.9258V44.2031H155.277C155.355 44.3984 155.395 44.6393 155.395 44.9258C155.395 45.1732 155.355 45.401 155.277 45.6094H149.359V56.0391C149.359 58.0964 150.303 59.125 152.191 59.125C152.908 59.125 153.52 58.9883 154.027 58.7148C154.548 58.4414 155.121 58.0312 155.746 57.4844C156.072 57.5234 156.286 57.6797 156.391 57.9531C155.818 58.9818 154.971 59.8411 153.852 60.5312C152.732 61.2214 151.501 61.5664 150.16 61.5664C147.009 61.5664 145.434 59.6589 145.434 55.8438V45.6094H143.031C142.979 45.375 142.953 45.2253 142.953 45.1602C142.953 45.1471 142.979 44.9974 143.031 44.7109C143.656 44.3984 144.132 44.1445 144.457 43.9492C144.796 43.7409 145.219 43.4479 145.727 43.0703C146.247 42.6927 146.716 42.25 147.133 41.7422C147.562 41.2214 147.979 40.6159 148.383 39.9258ZM158.5 44.9258C161.026 44.6654 163.227 44.1315 165.102 43.3242C165.427 43.4544 165.655 43.6237 165.785 43.832C165.785 50.5898 165.837 55.4206 165.941 58.3242C165.954 58.6628 166.052 58.9557 166.234 59.2031C166.43 59.4375 166.703 59.6198 167.055 59.75C167.406 59.8802 167.699 59.9779 167.934 60.043C168.168 60.0951 168.474 60.1471 168.852 60.1992C168.93 60.3555 168.969 60.5182 168.969 60.6875C168.969 60.8568 168.93 61 168.852 61.1172C167.133 61.0391 165.466 61 163.852 61C162.263 61 160.609 61.0391 158.891 61.1172C158.839 60.9089 158.812 60.7656 158.812 60.6875C158.812 60.6224 158.839 60.4596 158.891 60.1992C159.32 60.1471 159.672 60.0951 159.945 60.043C160.219 59.9779 160.557 59.8802 160.961 59.75C161.365 59.6198 161.671 59.4375 161.879 59.2031C162.087 58.9557 162.198 58.6628 162.211 58.3242C162.263 57.0352 162.289 55.4727 162.289 53.6367C162.289 53.0247 162.283 51.9831 162.27 50.5117C162.257 49.0404 162.25 47.7513 162.25 46.6445C161.508 46.1888 160.258 45.9219 158.5 45.8438C158.448 45.6354 158.422 45.4727 158.422 45.3555C158.422 45.2773 158.448 45.1341 158.5 44.9258ZM161.566 36.7617C161.566 36.0977 161.801 35.5312 162.27 35.0625C162.751 34.5938 163.318 34.3594 163.969 34.3594C164.633 34.3594 165.199 34.5938 165.668 35.0625C166.137 35.5312 166.371 36.0977 166.371 36.7617C166.371 37.4128 166.137 37.9792 165.668 38.4609C165.199 38.9297 164.633 39.1641 163.969 39.1641C163.318 39.1641 162.751 38.9297 162.27 38.4609C161.801 37.9792 161.566 37.4128 161.566 36.7617ZM180.98 43.2461C182.27 43.2461 183.428 43.474 184.457 43.9297C185.499 44.3854 186.384 45.0169 187.113 45.8242C187.842 46.6315 188.402 47.6016 188.793 48.7344C189.184 49.8542 189.379 51.0781 189.379 52.4062C189.379 55.1146 188.617 57.3151 187.094 59.0078C185.583 60.7135 183.546 61.5664 180.98 61.5664C179.704 61.5664 178.546 61.3451 177.504 60.9023C176.475 60.4466 175.596 59.8151 174.867 59.0078C174.138 58.1875 173.572 57.2174 173.168 56.0977C172.777 54.9779 172.582 53.7474 172.582 52.4062C172.582 51.0781 172.777 49.8542 173.168 48.7344C173.559 47.6016 174.112 46.6315 174.828 45.8242C175.557 45.0169 176.443 44.3854 177.484 43.9297C178.526 43.474 179.691 43.2461 180.98 43.2461ZM180.98 44.5156C179.652 44.5156 178.591 45.1602 177.797 46.4492C177.016 47.7383 176.625 49.724 176.625 52.4062C176.625 55.0885 177.016 57.0742 177.797 58.3633C178.591 59.6393 179.652 60.2773 180.98 60.2773C182.309 60.2773 183.363 59.6328 184.145 58.3438C184.939 57.0547 185.336 55.0755 185.336 52.4062C185.336 51.0651 185.232 49.8997 185.023 48.9102C184.815 47.9206 184.522 47.1003 184.145 46.4492C183.767 45.7982 183.311 45.3164 182.777 45.0039C182.243 44.6784 181.645 44.5156 180.98 44.5156ZM203.617 60.1992C203.695 60.3555 203.734 60.5182 203.734 60.6875C203.734 60.8177 203.695 60.9609 203.617 61.1172C201.898 61.0391 200.232 61 198.617 61C197.029 61 195.375 61.0391 193.656 61.1172C193.604 60.9089 193.578 60.7656 193.578 60.6875C193.578 60.6224 193.604 60.4596 193.656 60.1992C194.086 60.1471 194.438 60.0951 194.711 60.043C194.984 59.9779 195.323 59.8802 195.727 59.75C196.13 59.6198 196.436 59.4375 196.645 59.2031C196.853 58.9557 196.964 58.6628 196.977 58.3242C197.029 57.0352 197.055 55.4727 197.055 53.6367C197.055 53.0247 197.048 51.9831 197.035 50.5117C197.022 49.0404 197.016 47.7513 197.016 46.6445C196.273 46.1888 195.023 45.9219 193.266 45.8438C193.214 45.6354 193.188 45.4727 193.188 45.3555C193.188 45.2773 193.214 45.1341 193.266 44.9258C195.792 44.6654 197.992 44.1315 199.867 43.3242C200.193 43.4544 200.421 43.6237 200.551 43.832V46.918C201.814 45.8112 203.025 44.9258 204.184 44.2617C205.342 43.5846 206.514 43.2461 207.699 43.2461C209.184 43.2461 210.232 43.6628 210.844 44.4961C211.469 45.3294 211.794 46.6315 211.82 48.4023L212.016 58.3242C212.029 58.6628 212.126 58.9557 212.309 59.2031C212.504 59.4375 212.777 59.6198 213.129 59.75C213.493 59.8802 213.793 59.9779 214.027 60.043C214.262 60.0951 214.568 60.1471 214.945 60.1992C214.997 60.4596 215.023 60.6354 215.023 60.7266C215.023 60.8307 214.997 60.9609 214.945 61.1172C213.266 61.0391 211.716 61 210.297 61C208.917 61 207.387 61.0391 205.707 61.1172C205.655 60.9089 205.629 60.7526 205.629 60.6484C205.629 60.5573 205.655 60.4076 205.707 60.1992C206.046 60.1471 206.326 60.0951 206.547 60.043C206.781 59.9779 207.042 59.8802 207.328 59.75C207.628 59.6198 207.849 59.4375 207.992 59.2031C208.148 58.9557 208.227 58.6628 208.227 58.3242L208.266 49.0469C208.266 46.6901 207.556 45.5117 206.137 45.5117C204.809 45.5117 202.947 46.3971 200.551 48.168C200.551 51.957 200.603 55.3424 200.707 58.3242C200.72 58.6628 200.818 58.9557 201 59.2031C201.195 59.4375 201.469 59.6198 201.82 59.75C202.172 59.8802 202.465 59.9779 202.699 60.043C202.934 60.0951 203.24 60.1471 203.617 60.1992ZM227.953 32.3281C230.141 32.4062 232.419 32.4453 234.789 32.4453C235.909 32.4453 236.977 32.4193 237.992 32.3672C239.008 32.3151 239.529 32.2891 239.555 32.2891C240.258 32.2891 240.902 32.3086 241.488 32.3477C242.087 32.3737 242.758 32.4388 243.5 32.543C244.255 32.6471 244.926 32.7904 245.512 32.9727C246.098 33.1549 246.684 33.4089 247.27 33.7344C247.868 34.0599 248.363 34.444 248.754 34.8867C249.158 35.3294 249.483 35.8763 249.73 36.5273C249.978 37.1784 250.102 37.9076 250.102 38.7148C250.102 41.0977 248.676 42.888 245.824 44.0859V44.2422C247.96 44.6328 249.743 45.5182 251.176 46.8984C252.621 48.2786 253.344 50.043 253.344 52.1914C253.344 53.3372 253.135 54.3724 252.719 55.2969C252.315 56.2083 251.794 56.9635 251.156 57.5625C250.518 58.1615 249.717 58.6823 248.754 59.125C247.79 59.5677 246.853 59.9062 245.941 60.1406C245.03 60.375 243.982 60.5638 242.797 60.707C241.625 60.8372 240.622 60.9219 239.789 60.9609C238.956 60.987 238.025 61 236.996 61C233.467 61 230.44 61.0391 227.914 61.1172C227.862 60.9609 227.836 60.8307 227.836 60.7266C227.836 60.6354 227.862 60.4596 227.914 60.1992C228.305 60.1602 228.617 60.1276 228.852 60.1016C229.086 60.0755 229.405 60.0299 229.809 59.9648C230.225 59.8997 230.557 59.8281 230.805 59.75C231.065 59.6589 231.332 59.5482 231.605 59.418C231.879 59.2878 232.081 59.1315 232.211 58.9492C232.354 58.7669 232.426 58.5586 232.426 58.3242C232.582 54.2487 232.66 50.1406 232.66 46C232.66 41.7812 232.595 38.1419 232.465 35.082C232.452 34.7435 232.302 34.457 232.016 34.2227C231.742 33.9883 231.326 33.806 230.766 33.6758C230.206 33.5456 229.757 33.4609 229.418 33.4219C229.079 33.3698 228.591 33.3112 227.953 33.2461C227.901 33.0117 227.875 32.849 227.875 32.7578C227.875 32.6797 227.901 32.5365 227.953 32.3281ZM236.781 46V47.4453L236.996 59.6719C237.868 59.6719 238.643 59.6589 239.32 59.6328C239.997 59.5938 240.74 59.5156 241.547 59.3984C242.354 59.2682 243.057 59.099 243.656 58.8906C244.255 58.6823 244.854 58.3958 245.453 58.0312C246.052 57.6536 246.54 57.2109 246.918 56.7031C247.296 56.1953 247.602 55.5703 247.836 54.8281C248.07 54.0729 248.188 53.2266 248.188 52.2891C248.188 51.3776 248.038 50.5638 247.738 49.8477C247.439 49.1185 247.016 48.513 246.469 48.0312C245.935 47.5365 245.277 47.1263 244.496 46.8008C243.728 46.4753 242.888 46.2409 241.977 46.0977C241.078 45.9544 240.095 45.8828 239.027 45.8828C238.285 45.8828 237.536 45.9219 236.781 46ZM237.035 33.6758L236.781 44.8086C242.094 44.8086 244.75 42.7773 244.75 38.7148C244.75 36.944 244.197 35.6419 243.09 34.8086C241.996 33.9753 240.538 33.5586 238.715 33.5586C238.311 33.5586 237.751 33.5977 237.035 33.6758ZM256.859 44.9258C259.385 44.6654 261.586 44.1315 263.461 43.3242C263.786 43.4544 264.014 43.6237 264.145 43.832C264.145 50.5898 264.197 55.4206 264.301 58.3242C264.314 58.6628 264.411 58.9557 264.594 59.2031C264.789 59.4375 265.062 59.6198 265.414 59.75C265.766 59.8802 266.059 59.9779 266.293 60.043C266.527 60.0951 266.833 60.1471 267.211 60.1992C267.289 60.3555 267.328 60.5182 267.328 60.6875C267.328 60.8568 267.289 61 267.211 61.1172C265.492 61.0391 263.826 61 262.211 61C260.622 61 258.969 61.0391 257.25 61.1172C257.198 60.9089 257.172 60.7656 257.172 60.6875C257.172 60.6224 257.198 60.4596 257.25 60.1992C257.68 60.1471 258.031 60.0951 258.305 60.043C258.578 59.9779 258.917 59.8802 259.32 59.75C259.724 59.6198 260.03 59.4375 260.238 59.2031C260.447 58.9557 260.557 58.6628 260.57 58.3242C260.622 57.0352 260.648 55.4727 260.648 53.6367C260.648 53.0247 260.642 51.9831 260.629 50.5117C260.616 49.0404 260.609 47.7513 260.609 46.6445C259.867 46.1888 258.617 45.9219 256.859 45.8438C256.807 45.6354 256.781 45.4727 256.781 45.3555C256.781 45.2773 256.807 45.1341 256.859 44.9258ZM259.926 36.7617C259.926 36.0977 260.16 35.5312 260.629 35.0625C261.111 34.5938 261.677 34.3594 262.328 34.3594C262.992 34.3594 263.559 34.5938 264.027 35.0625C264.496 35.5312 264.73 36.0977 264.73 36.7617C264.73 37.4128 264.496 37.9792 264.027 38.4609C263.559 38.9297 262.992 39.1641 262.328 39.1641C261.677 39.1641 261.111 38.9297 260.629 38.4609C260.16 37.9792 259.926 37.4128 259.926 36.7617ZM279.984 32.9141C282.445 32.6797 284.646 32.1458 286.586 31.3125C286.924 31.4557 287.146 31.6315 287.25 31.8398C287.25 46.5924 287.309 55.4206 287.426 58.3242C287.439 58.6628 287.536 58.9557 287.719 59.2031C287.914 59.4375 288.188 59.6198 288.539 59.75C288.891 59.8802 289.184 59.9779 289.418 60.043C289.652 60.0951 289.958 60.1471 290.336 60.1992C290.388 60.4076 290.414 60.5703 290.414 60.6875C290.414 60.7656 290.388 60.9089 290.336 61.1172C289.88 61.0911 289.411 61.0651 288.93 61.0391C288.461 61.013 288.09 60.9935 287.816 60.9805C287.543 60.9674 287.289 60.9609 287.055 60.9609C286.859 60.9609 286.638 60.9674 286.391 60.9805C286.143 60.9935 285.805 61.013 285.375 61.0391C284.945 61.0651 284.522 61.0911 284.105 61.1172C284.04 61.0911 283.982 61.0586 283.93 61.0195C283.891 60.9935 283.858 60.974 283.832 60.9609C283.819 60.9349 283.799 60.9023 283.773 60.8633C283.747 60.8112 283.728 60.7786 283.715 60.7656C283.702 60.7526 283.682 60.7135 283.656 60.6484C283.643 60.5703 283.63 60.5247 283.617 60.5117C283.669 60.1992 283.695 59.4961 283.695 58.4023C281.547 60.5117 279.561 61.5664 277.738 61.5664C275.733 61.5664 274.099 60.8112 272.836 59.3008C271.573 57.7904 270.941 55.7331 270.941 53.1289C270.941 52.2305 271.046 51.332 271.254 50.4336C271.462 49.5352 271.807 48.6497 272.289 47.7773C272.771 46.9049 273.363 46.1367 274.066 45.4727C274.77 44.8086 275.661 44.2747 276.742 43.8711C277.823 43.4544 279.021 43.2461 280.336 43.2461C281.312 43.2461 282.458 43.4544 283.773 43.8711C283.747 41.3971 283.734 38.3177 283.734 34.6328C282.992 34.2031 281.742 33.9362 279.984 33.832C279.932 33.6237 279.906 33.4674 279.906 33.3633C279.906 33.2721 279.932 33.1224 279.984 32.9141ZM279.613 59.0078C280.915 59.0078 282.289 58.3112 283.734 56.918C283.76 55.6419 283.773 53.2266 283.773 49.6719V46.8398C282.875 45.2904 281.501 44.5156 279.652 44.5156C279.262 44.5156 278.871 44.5742 278.48 44.6914C278.09 44.8086 277.673 45.043 277.23 45.3945C276.788 45.7461 276.397 46.1953 276.059 46.7422C275.733 47.2891 275.46 48.0508 275.238 49.0273C275.017 49.9909 274.906 51.1042 274.906 52.3672C274.906 54.2943 275.303 55.8828 276.098 57.1328C276.905 58.3828 278.077 59.0078 279.613 59.0078ZM303.266 32.9141C305.727 32.6797 307.927 32.1458 309.867 31.3125C310.206 31.4557 310.427 31.6315 310.531 31.8398C310.531 46.5924 310.59 55.4206 310.707 58.3242C310.72 58.6628 310.818 58.9557 311 59.2031C311.195 59.4375 311.469 59.6198 311.82 59.75C312.172 59.8802 312.465 59.9779 312.699 60.043C312.934 60.0951 313.24 60.1471 313.617 60.1992C313.669 60.4076 313.695 60.5703 313.695 60.6875C313.695 60.7656 313.669 60.9089 313.617 61.1172C313.161 61.0911 312.693 61.0651 312.211 61.0391C311.742 61.013 311.371 60.9935 311.098 60.9805C310.824 60.9674 310.57 60.9609 310.336 60.9609C310.141 60.9609 309.919 60.9674 309.672 60.9805C309.424 60.9935 309.086 61.013 308.656 61.0391C308.227 61.0651 307.803 61.0911 307.387 61.1172C307.322 61.0911 307.263 61.0586 307.211 61.0195C307.172 60.9935 307.139 60.974 307.113 60.9609C307.1 60.9349 307.081 60.9023 307.055 60.8633C307.029 60.8112 307.009 60.7786 306.996 60.7656C306.983 60.7526 306.964 60.7135 306.938 60.6484C306.924 60.5703 306.911 60.5247 306.898 60.5117C306.951 60.1992 306.977 59.4961 306.977 58.4023C304.828 60.5117 302.842 61.5664 301.02 61.5664C299.014 61.5664 297.38 60.8112 296.117 59.3008C294.854 57.7904 294.223 55.7331 294.223 53.1289C294.223 52.2305 294.327 51.332 294.535 50.4336C294.743 49.5352 295.089 48.6497 295.57 47.7773C296.052 46.9049 296.645 46.1367 297.348 45.4727C298.051 44.8086 298.943 44.2747 300.023 43.8711C301.104 43.4544 302.302 43.2461 303.617 43.2461C304.594 43.2461 305.74 43.4544 307.055 43.8711C307.029 41.3971 307.016 38.3177 307.016 34.6328C306.273 34.2031 305.023 33.9362 303.266 33.832C303.214 33.6237 303.188 33.4674 303.188 33.3633C303.188 33.2721 303.214 33.1224 303.266 32.9141ZM302.895 59.0078C304.197 59.0078 305.57 58.3112 307.016 56.918C307.042 55.6419 307.055 53.2266 307.055 49.6719V46.8398C306.156 45.2904 304.783 44.5156 302.934 44.5156C302.543 44.5156 302.152 44.5742 301.762 44.6914C301.371 44.8086 300.954 45.043 300.512 45.3945C300.069 45.7461 299.678 46.1953 299.34 46.7422C299.014 47.2891 298.741 48.0508 298.52 49.0273C298.298 49.9909 298.188 51.1042 298.188 52.3672C298.188 54.2943 298.585 55.8828 299.379 57.1328C300.186 58.3828 301.358 59.0078 302.895 59.0078ZM316.586 44.9258C319.112 44.6654 321.312 44.1315 323.188 43.3242C323.513 43.4544 323.741 43.6237 323.871 43.832C323.871 50.5898 323.923 55.4206 324.027 58.3242C324.04 58.6628 324.138 58.9557 324.32 59.2031C324.516 59.4375 324.789 59.6198 325.141 59.75C325.492 59.8802 325.785 59.9779 326.02 60.043C326.254 60.0951 326.56 60.1471 326.938 60.1992C327.016 60.3555 327.055 60.5182 327.055 60.6875C327.055 60.8568 327.016 61 326.938 61.1172C325.219 61.0391 323.552 61 321.938 61C320.349 61 318.695 61.0391 316.977 61.1172C316.924 60.9089 316.898 60.7656 316.898 60.6875C316.898 60.6224 316.924 60.4596 316.977 60.1992C317.406 60.1471 317.758 60.0951 318.031 60.043C318.305 59.9779 318.643 59.8802 319.047 59.75C319.451 59.6198 319.757 59.4375 319.965 59.2031C320.173 58.9557 320.284 58.6628 320.297 58.3242C320.349 57.0352 320.375 55.4727 320.375 53.6367C320.375 53.0247 320.368 51.9831 320.355 50.5117C320.342 49.0404 320.336 47.7513 320.336 46.6445C319.594 46.1888 318.344 45.9219 316.586 45.8438C316.534 45.6354 316.508 45.4727 316.508 45.3555C316.508 45.2773 316.534 45.1341 316.586 44.9258ZM319.652 36.7617C319.652 36.0977 319.887 35.5312 320.355 35.0625C320.837 34.5938 321.404 34.3594 322.055 34.3594C322.719 34.3594 323.285 34.5938 323.754 35.0625C324.223 35.5312 324.457 36.0977 324.457 36.7617C324.457 37.4128 324.223 37.9792 323.754 38.4609C323.285 38.9297 322.719 39.1641 322.055 39.1641C321.404 39.1641 320.837 38.9297 320.355 38.4609C319.887 37.9792 319.652 37.4128 319.652 36.7617ZM340.102 60.1992C340.18 60.3555 340.219 60.5182 340.219 60.6875C340.219 60.8177 340.18 60.9609 340.102 61.1172C338.383 61.0391 336.716 61 335.102 61C333.513 61 331.859 61.0391 330.141 61.1172C330.089 60.9089 330.062 60.7656 330.062 60.6875C330.062 60.6224 330.089 60.4596 330.141 60.1992C330.57 60.1471 330.922 60.0951 331.195 60.043C331.469 59.9779 331.807 59.8802 332.211 59.75C332.615 59.6198 332.921 59.4375 333.129 59.2031C333.337 58.9557 333.448 58.6628 333.461 58.3242C333.513 57.0352 333.539 55.4727 333.539 53.6367C333.539 53.0247 333.533 51.9831 333.52 50.5117C333.507 49.0404 333.5 47.7513 333.5 46.6445C332.758 46.1888 331.508 45.9219 329.75 45.8438C329.698 45.6354 329.672 45.4727 329.672 45.3555C329.672 45.2773 329.698 45.1341 329.75 44.9258C332.276 44.6654 334.477 44.1315 336.352 43.3242C336.677 43.4544 336.905 43.6237 337.035 43.832V46.918C338.298 45.8112 339.509 44.9258 340.668 44.2617C341.827 43.5846 342.999 43.2461 344.184 43.2461C345.668 43.2461 346.716 43.6628 347.328 44.4961C347.953 45.3294 348.279 46.6315 348.305 48.4023L348.5 58.3242C348.513 58.6628 348.611 58.9557 348.793 59.2031C348.988 59.4375 349.262 59.6198 349.613 59.75C349.978 59.8802 350.277 59.9779 350.512 60.043C350.746 60.0951 351.052 60.1471 351.43 60.1992C351.482 60.4596 351.508 60.6354 351.508 60.7266C351.508 60.8307 351.482 60.9609 351.43 61.1172C349.75 61.0391 348.201 61 346.781 61C345.401 61 343.871 61.0391 342.191 61.1172C342.139 60.9089 342.113 60.7526 342.113 60.6484C342.113 60.5573 342.139 60.4076 342.191 60.1992C342.53 60.1471 342.81 60.0951 343.031 60.043C343.266 59.9779 343.526 59.8802 343.812 59.75C344.112 59.6198 344.333 59.4375 344.477 59.2031C344.633 58.9557 344.711 58.6628 344.711 58.3242L344.75 49.0469C344.75 46.6901 344.04 45.5117 342.621 45.5117C341.293 45.5117 339.431 46.3971 337.035 48.168C337.035 51.957 337.087 55.3424 337.191 58.3242C337.204 58.6628 337.302 58.9557 337.484 59.2031C337.68 59.4375 337.953 59.6198 338.305 59.75C338.656 59.8802 338.949 59.9779 339.184 60.043C339.418 60.0951 339.724 60.1471 340.102 60.1992ZM369.008 49.3594C369.008 51.4167 368.344 53.0638 367.016 54.3008C365.688 55.5378 364.073 56.1562 362.172 56.1562C361.273 56.1562 360.434 56.0911 359.652 55.9609C358.871 56.4557 358.48 57.0677 358.48 57.7969C358.48 58.3828 358.845 58.8125 359.574 59.0859C360.316 59.3464 361.579 59.4766 363.363 59.4766C363.65 59.4766 364.19 59.4635 364.984 59.4375C365.779 59.4115 366.41 59.3984 366.879 59.3984C370.512 59.3984 372.328 60.8893 372.328 63.8711C372.328 64.7174 372.074 65.6094 371.566 66.5469C371.072 67.4844 370.388 68.3568 369.516 69.1641C368.656 69.9844 367.569 70.6615 366.254 71.1953C364.952 71.7292 363.578 71.9961 362.133 71.9961C359.854 71.9961 358.129 71.5729 356.957 70.7266C355.785 69.8932 355.199 68.8516 355.199 67.6016C355.199 66.7292 355.518 65.8568 356.156 64.9844C356.807 64.112 357.771 63.3307 359.047 62.6406C356.534 62.276 355.277 61.2995 355.277 59.7109C355.277 58.9557 355.557 58.2461 356.117 57.582C356.69 56.9049 357.465 56.2018 358.441 55.4727C357.113 54.7305 356.195 53.8776 355.688 52.9141C355.18 51.9505 354.926 50.8568 354.926 49.6328C354.926 48.8776 355.102 48.1224 355.453 47.3672C355.818 46.599 356.306 45.9154 356.918 45.3164C357.53 44.7044 358.279 44.2096 359.164 43.832C360.062 43.4414 361.007 43.2461 361.996 43.2461C362.908 43.2461 363.656 43.3177 364.242 43.4609C364.828 43.5911 365.557 43.8255 366.43 44.1641C367.302 44.5026 368.122 44.7826 368.891 45.0039C368.956 44.4961 369.158 44.0664 369.496 43.7148C369.835 43.3503 370.271 43.168 370.805 43.168C371.286 43.168 371.716 43.3698 372.094 43.7734C372.484 44.1771 372.68 44.6393 372.68 45.1602C372.68 45.694 372.51 46.1562 372.172 46.5469C371.846 46.9245 371.43 47.1133 370.922 47.1133C370.622 47.1133 370.323 47.0612 370.023 46.957C369.724 46.8529 369.477 46.7487 369.281 46.6445C369.099 46.5273 368.826 46.3451 368.461 46.0977C368.096 45.8372 367.81 45.6419 367.602 45.5117L367.523 45.6094C368.005 46.0391 368.37 46.5924 368.617 47.2695C368.878 47.9336 369.008 48.6302 369.008 49.3594ZM358.812 66.1953C358.812 66.7161 358.891 67.2109 359.047 67.6797C359.203 68.1484 359.451 68.5911 359.789 69.0078C360.128 69.4245 360.603 69.75 361.215 69.9844C361.84 70.2318 362.569 70.3555 363.402 70.3555C364.47 70.3555 365.414 70.1862 366.234 69.8477C367.068 69.5221 367.699 69.112 368.129 68.6172C368.559 68.1224 368.878 67.6406 369.086 67.1719C369.294 66.7161 369.398 66.2995 369.398 65.9219C369.398 65.401 369.353 64.9583 369.262 64.5938C369.171 64.2422 368.995 63.8971 368.734 63.5586C368.487 63.2331 368.096 62.9857 367.562 62.8164C367.029 62.6471 366.352 62.5625 365.531 62.5625C365.089 62.5625 364.262 62.5885 363.051 62.6406C361.84 62.6927 361.065 62.7188 360.727 62.7188C360.128 63.1354 359.659 63.6497 359.32 64.2617C358.982 64.8737 358.812 65.5182 358.812 66.1953ZM358.891 49.6719C358.891 53.1484 359.926 54.8867 361.996 54.8867C362.986 54.8867 363.741 54.457 364.262 53.5977C364.783 52.7383 365.043 51.3125 365.043 49.3203C365.043 48.4089 364.939 47.6211 364.73 46.957C364.522 46.2799 364.249 45.7786 363.91 45.4531C363.585 45.1146 363.253 44.8737 362.914 44.7305C362.589 44.5872 362.257 44.5156 361.918 44.5156C361.046 44.5156 360.323 44.9258 359.75 45.7461C359.177 46.5664 358.891 47.875 358.891 49.6719Z" fill="url(#paint0_linear_6_21)"/>
<path d="M17.5492 53.8301C16.4623 55.0272 14.7543 55.0272 13.7451 53.8301C12.6582 52.633 12.6582 50.752 13.7451 49.6404L33.1541 28.2644C34.241 27.0674 35.949 27.0674 36.9583 28.2644C38.0452 29.4615 38.0452 31.3426 36.9583 32.4541L17.5492 53.8301Z" fill="#A35D17"/>
<path d="M36.9582 28.2644C38.0451 29.4615 38.0451 31.3426 36.9582 32.4541L17.5492 53.8301C16.4623 55.0271 14.7543 55.0271 13.7451 53.8301" fill="#6B400C"/>
<path d="M17.0058 59.1313C15.7636 60.4994 13.8227 60.4994 12.5805 59.1313L8.93163 55.1127C7.68946 53.7446 7.68946 51.607 8.93163 50.2389C10.1738 48.8709 12.1147 48.8709 13.3569 50.2389L17.0058 54.2576C18.248 55.6257 18.248 57.7633 17.0058 59.1313Z" fill="#F4AD31"/>
<path d="M13.3569 50.2389L17.0058 54.2576C18.248 55.6257 18.248 57.7633 17.0058 59.1313C15.7636 60.4994 13.8227 60.4994 12.5805 59.1313" fill="#DD820A"/>
<path d="M49.4577 36.2163C46.197 39.8075 42.7033 37.8409 39.4426 34.2497L31.4461 25.4428C28.1854 21.8516 26.4774 18.004 29.6605 14.4128L31.0579 12.8737C34.3186 9.28256 37.8123 11.2492 41.073 14.8403L49.0695 23.6472C52.3302 27.2384 54.0382 31.0861 50.8551 34.6772L49.4577 36.2163Z" fill="#F4AD31"/>
<path d="M41.073 14.9258L49.0695 23.7327C52.3302 27.3239 54.0382 31.1716 50.8551 34.7628L49.4577 36.3018C46.1969 39.893 42.7033 37.9264 39.4426 34.3352" fill="#DD820A"/>
<path d="M27.9525 20.6546C27.3314 21.3386 26.3221 21.3386 25.701 20.6546C25.0799 19.9705 25.0799 18.859 25.701 18.175L34.3963 8.51302C35.0173 7.82899 36.0266 7.82899 36.6477 8.51302C37.2688 9.19705 37.2688 10.3086 36.6477 10.9926L27.9525 20.6546Z" fill="#F4AD31"/>
<path d="M36.6477 8.51303C37.2688 9.19706 37.2688 10.3086 36.6477 10.9926L27.9525 20.6546C27.3314 21.3386 26.3221 21.3386 25.701 20.6546" fill="#DD820A"/>
<path d="M46.1193 40.6625C45.4982 41.3465 44.4889 41.3465 43.8679 40.6625C43.2468 39.9785 43.2468 38.8669 43.8679 38.1829L52.5631 28.6064C53.1842 27.9224 54.1935 27.9224 54.8145 28.6064C55.4356 29.2905 55.4356 30.402 54.8145 31.0861L46.1193 40.6625Z" fill="#F4AD31"/>
<path d="M54.8922 28.6064C55.5133 29.2905 55.5133 30.402 54.8922 31.0861L46.1193 40.6625C45.4982 41.3465 44.4889 41.3465 43.8679 40.6625" fill="#DD820A"/>
<path d="M38.0452 34.7627C37.5017 35.3612 36.5701 35.3612 36.0266 34.7627L31.1356 29.376C30.5921 28.7774 30.5921 27.7514 31.1356 27.1529C31.679 26.5543 32.6106 26.5543 33.1541 27.1529L38.0452 32.5396C38.5886 33.1381 38.5886 34.1642 38.0452 34.7627Z" fill="#DD820A"/>
<path d="M39.2097 51.1795H55.5133V58.8748H39.2097V51.1795Z" fill="#D32A0F"/>
<path d="M39.2097 51.1795H55.5133V58.8748" fill="#AF1909"/>
<path d="M56.2896 59.9009C56.2896 60.2429 56.0567 60.5849 55.6686 60.5849H39.0544C38.7439 60.5849 38.4333 60.3284 38.4333 59.9009V59.4734C38.4333 59.1313 38.6663 58.7893 39.0544 58.7893H55.7462C56.0567 58.7893 56.3673 59.0458 56.3673 59.4734V59.9009H56.2896Z" fill="#AF1909"/>
<path d="M56.2896 50.4954C56.2896 50.8374 56.0567 51.1795 55.6686 51.1795H39.0544C38.7439 51.1795 38.4333 50.923 38.4333 50.4954V50.0679C38.4333 49.7259 38.6663 49.3839 39.0544 49.3839H55.7462C56.0567 49.3839 56.3673 49.6404 56.3673 50.0679V50.4954H56.2896Z" fill="#AF1909"/>
<defs>
<linearGradient id="paint0_linear_6_21" x1="225" y1="20" x2="225" y2="83" gradientUnits="userSpaceOnUse">
<stop offset="0.107143" stop-color="#1E1E1E"/>
<stop offset="1" stop-color="#848484"/>
</linearGradient>
</defs>
</svg>
