<?xml version="1.0" encoding="UTF-8"?>
<!DOCTYPE svg PUBLIC "-//W3C//DTD SVG 1.1//EN" "http://www.w3.org/Graphics/SVG/1.1/DTD/svg11.dtd">
<svg xmlns="http://www.w3.org/2000/svg" version="1.1" width="7855px" height="7040px" style="shape-rendering:geometricPrecision; text-rendering:geometricPrecision; image-rendering:optimizeQuality; fill-rule:evenodd; clip-rule:evenodd" xmlns:xlink="http://www.w3.org/1999/xlink">
<g><path style="opacity:1" fill="#00f13f" d="M 6940.5,-0.5 C 6941.17,-0.5 6941.83,-0.5 6942.5,-0.5C 6947.69,11.0796 6952.69,22.7463 6957.5,34.5C 6934.25,38.9311 6910.91,42.9311 6887.5,46.5C 6904.87,30.4619 6922.54,14.7952 6940.5,-0.5 Z"/></g>
<g><path style="opacity:1" fill="#00ee3d" d="M 6957.5,34.5 C 6984.74,96.3081 7013.07,157.641 7042.5,218.5C 6898.23,244.156 6753.9,269.489 6609.5,294.5C 6654.34,252.83 6699.67,211.663 6745.5,171C 6792.41,128.919 6839.74,87.4189 6887.5,46.5C 6910.91,42.9311 6934.25,38.9311 6957.5,34.5 Z"/></g>
<g><path style="opacity:1" fill="#00e93b" d="M 7042.5,218.5 C 7092.61,318.72 7145.27,417.386 7200.5,514.5C 6859.44,574.177 6518.44,634.177 6177.5,694.5C 6248,627.167 6319,560.334 6390.5,494C 6463.07,426.924 6536.07,360.424 6609.5,294.5C 6753.9,269.489 6898.23,244.156 7042.5,218.5 Z"/></g>
<g><path style="opacity:1" fill="#00e539" d="M 7200.5,514.5 C 7230.59,567.024 7260.93,619.358 7291.5,671.5C 6845.74,750.795 6399.74,829.462 5953.5,907.5C 6027.53,835.797 6102.2,764.797 6177.5,694.5C 6518.44,634.177 6859.44,574.177 7200.5,514.5 Z"/></g>
<g><path style="opacity:1" fill="#00e237" d="M 7291.5,671.5 C 7328.83,731.492 7366.16,791.492 7403.5,851.5C 6837.18,951.275 6270.85,1050.94 5704.5,1150.5C 5787.17,1069.16 5870.17,988.165 5953.5,907.5C 6399.74,829.462 6845.74,750.795 7291.5,671.5 Z"/></g>
<g><path style="opacity:1" fill="#00dd35" d="M 7403.5,851.5 C 7471.26,956.251 7540.59,1059.92 7611.5,1162.5C 6836.27,1299.59 6060.94,1436.26 5285.5,1572.5C 5423.08,1429.92 5562.75,1289.25 5704.5,1150.5C 6270.85,1050.94 6837.18,951.275 7403.5,851.5 Z"/></g>
<g><path style="opacity:1" fill="#00d732" d="M 7611.5,1162.5 C 7669.31,1244.32 7728.31,1325.32 7788.5,1405.5C 6849.48,1570.73 5910.48,1736.06 4971.5,1901.5C 5074.74,1790.6 5179.4,1680.93 5285.5,1572.5C 6060.94,1436.26 6836.27,1299.59 7611.5,1162.5 Z"/></g>
<g><path style="opacity:1" fill="#00d530" d="M 7788.5,1405.5 C 7799.5,1420.17 7810.5,1434.83 7821.5,1449.5C 6852.76,1619.78 5884.09,1790.45 4915.5,1961.5C 4933.83,1941.17 4952.49,1921.17 4971.5,1901.5C 5910.48,1736.06 6849.48,1570.73 7788.5,1405.5 Z"/></g>
<g><path style="opacity:1" fill="#00d12f" d="M 7821.5,1449.5 C 7832.5,1463.5 7843.5,1477.5 7854.5,1491.5C 7854.5,1492.17 7854.5,1492.83 7854.5,1493.5C 7733.39,1579.07 7614.39,1667.57 7497.5,1759C 7446.47,1799.84 7395.47,1840.68 7344.5,1881.5C 6409.2,2046.38 5473.87,2211.05 4538.5,2375.5C 4604.42,2300.74 4670.92,2226.41 4738,2152.5C 4796.72,2088.38 4855.89,2024.71 4915.5,1961.5C 5884.09,1790.45 6852.76,1619.78 7821.5,1449.5 Z"/></g>
<g><path style="opacity:1" fill="#00cb2c" d="M 7344.5,1881.5 C 7185.28,2012.7 7029.28,2148.03 6876.5,2287.5C 5986.82,2444.06 5097.15,2600.73 4207.5,2757.5C 4315.62,2628.37 4425.96,2501.04 4538.5,2375.5C 5473.87,2211.05 6409.2,2046.38 7344.5,1881.5 Z"/></g>
<g><path style="opacity:1" fill="#00c82a" d="M 6876.5,2287.5 C 6854.49,2308.17 6832.16,2328.51 6809.5,2348.5C 5925.91,2504.55 5042.24,2660.22 4158.5,2815.5C 4174.84,2796.13 4191.18,2776.79 4207.5,2757.5C 5097.15,2600.73 5986.82,2444.06 6876.5,2287.5 Z"/></g>
<g><path style="opacity:1" fill="#00c429" d="M 6809.5,2348.5 C 6740.09,2413.07 6671.09,2478.24 6602.5,2544C 6534.3,2611.04 6465.96,2677.87 6397.5,2744.5C 5549.15,2894.06 4700.81,3043.73 3852.5,3193.5C 3896.71,3136.44 3941.55,3079.77 3987,3023.5C 4043.62,2953.71 4100.79,2884.38 4158.5,2815.5C 5042.24,2660.22 5925.91,2504.55 6809.5,2348.5 Z"/></g>
<g><path style="opacity:1" fill="#00be27" d="M 6397.5,2744.5 C 6269.66,2873.01 6143.66,3003.01 6019.5,3134.5C 5202.52,3278.61 4385.52,3422.61 3568.5,3566.5C 3660.9,3440.44 3755.56,3316.1 3852.5,3193.5C 4700.81,3043.73 5549.15,2894.06 6397.5,2744.5 Z"/></g>
<g><path style="opacity:1" fill="#00cf2e" d="M 1222.5,2960.5 C 1102.96,2982.04 983.291,3003.04 863.5,3023.5C 919.251,2947.41 974.251,2870.74 1028.5,2793.5C 1093.98,2848.24 1158.65,2903.9 1222.5,2960.5 Z"/></g>
<g><path style="opacity:1" fill="#00ca2c" d="M 1222.5,2960.5 C 1324.29,3048.27 1423.95,3138.61 1521.5,3231.5C 1209.15,3286.39 896.813,3341.39 584.5,3396.5C 679.204,3273.42 772.204,3149.08 863.5,3023.5C 983.291,3003.04 1102.96,2982.04 1222.5,2960.5 Z"/></g>
<g><path style="opacity:1" fill="#00bc24" d="M 6019.5,3134.5 C 6010.28,3144.93 6000.62,3154.93 5990.5,3164.5C 5176.57,3308.22 4362.57,3451.55 3548.5,3594.5C 3554.78,3584.89 3561.45,3575.55 3568.5,3566.5C 4385.52,3422.61 5202.52,3278.61 6019.5,3134.5 Z"/></g>
<g><path style="opacity:1" fill="#00b824" d="M 5990.5,3164.5 C 5871.89,3292.45 5754.22,3421.12 5637.5,3550.5C 4855.47,3687.95 4073.47,3825.62 3291.5,3963.5C 3374.45,3838.56 3460.11,3715.56 3548.5,3594.5C 4362.57,3451.55 5176.57,3308.22 5990.5,3164.5 Z"/></g>
<g><path style="opacity:1" fill="#00c82a" d="M 1521.5,3231.5 C 1537.13,3244.79 1552.13,3258.79 1566.5,3273.5C 1224.52,3333.63 882.52,3393.63 540.5,3453.5C 555.167,3434.5 569.833,3415.5 584.5,3396.5C 896.813,3341.39 1209.15,3286.39 1521.5,3231.5 Z"/></g>
<g><path style="opacity:1" fill="#00c429" d="M 1566.5,3273.5 C 1616.6,3320.1 1666.27,3367.26 1715.5,3415C 1760.03,3458.7 1804.37,3502.53 1848.5,3546.5C 1310.5,3641.5 772.5,3736.5 234.5,3831.5C 339.183,3707.5 441.183,3581.5 540.5,3453.5C 882.52,3393.63 1224.52,3333.63 1566.5,3273.5 Z"/></g>
<g><path style="opacity:1" fill="#00be26" d="M 1848.5,3546.5 C 1940.22,3637.56 2030.89,3729.56 2120.5,3822.5C 1449.5,3940.5 778.503,4058.5 107.5,4176.5C 71.5,4148.83 35.5,4121.17 -0.5,4093.5C -0.5,4092.5 -0.5,4091.5 -0.5,4090.5C 36.166,4052.67 72.3327,4014.33 108,3975.5C 150.776,3927.9 192.943,3879.9 234.5,3831.5C 772.5,3736.5 1310.5,3641.5 1848.5,3546.5 Z"/></g>
<g><path style="opacity:1" fill="#00b221" d="M 5637.5,3550.5 C 5508.31,3696.01 5380.65,3842.68 5254.5,3990.5C 4512.58,4121.6 3770.58,4252.26 3028.5,4382.5C 3111.93,4239.93 3199.59,4100.27 3291.5,3963.5C 4073.47,3825.62 4855.47,3687.95 5637.5,3550.5 Z"/></g>
<g><path style="opacity:1" fill="#00bc24" d="M 2120.5,3822.5 C 2127.14,3829.47 2133.81,3836.47 2140.5,3843.5C 1471.41,3961.18 802.41,4079.18 133.5,4197.5C 124.23,4191.23 115.563,4184.23 107.5,4176.5C 778.503,4058.5 1449.5,3940.5 2120.5,3822.5 Z"/></g>
<g><path style="opacity:1" fill="#00b824" d="M 2140.5,3843.5 C 2228.6,3934.6 2315.27,4026.93 2400.5,4120.5C 1752.26,4235.15 1103.92,4349.49 455.5,4463.5C 349.016,4373.67 241.683,4285 133.5,4197.5C 802.41,4079.18 1471.41,3961.18 2140.5,3843.5 Z"/></g>
<g><path style="opacity:1" fill="#00af1e" d="M 5254.5,3990.5 C 5246.5,4000.17 5238.5,4009.83 5230.5,4019.5C 4491.22,4150.09 3751.89,4280.42 3012.5,4410.5C 3017.83,4401.17 3023.17,4391.83 3028.5,4382.5C 3770.58,4252.26 4512.58,4121.6 5254.5,3990.5 Z"/></g>
<g><path style="opacity:1" fill="#00ab1d" d="M 5230.5,4019.5 C 5124.38,4145.27 5019.05,4271.61 4914.5,4398.5C 3653.57,4621.16 2392.57,4843.49 1131.5,5065.5C 1033.03,4974.46 934.027,4884.12 834.5,4794.5C 1459.5,4684.5 2084.5,4574.5 2709.5,4464.5C 2765.3,4528.76 2820.63,4593.43 2875.5,4658.5C 2919.66,4574.84 2965.32,4492.17 3012.5,4410.5C 3751.89,4280.42 4491.22,4150.09 5230.5,4019.5 Z"/></g>
<g><path style="opacity:1" fill="#00b221" d="M 2400.5,4120.5 C 2499.03,4226.02 2595.36,4333.35 2689.5,4442.5C 2063.62,4553.34 1437.62,4663.68 811.5,4773.5C 693.695,4669.02 575.029,4565.69 455.5,4463.5C 1103.92,4349.49 1752.26,4235.15 2400.5,4120.5 Z"/></g>
<g><path style="opacity:1" fill="#00a51b" d="M 4914.5,4398.5 C 4813.11,4523.63 4712.44,4649.29 4612.5,4775.5C 3547.79,4962.95 2483.12,5150.62 1418.5,5338.5C 1323.11,5247.11 1227.44,5156.11 1131.5,5065.5C 2392.57,4843.49 3653.57,4621.16 4914.5,4398.5 Z"/></g>
<g><path style="opacity:1" fill="#00af1e" d="M 2689.5,4442.5 C 2696.51,4449.51 2703.17,4456.84 2709.5,4464.5C 2084.5,4574.5 1459.5,4684.5 834.5,4794.5C 826.508,4787.84 818.841,4780.84 811.5,4773.5C 1437.62,4663.68 2063.62,4553.34 2689.5,4442.5 Z"/></g>
<g><path style="opacity:1" fill="#00a119" d="M 4612.5,4775.5 C 4567.26,4832.99 4522.26,4890.65 4477.5,4948.5C 3500.83,5120.5 2524.17,5292.5 1547.5,5464.5C 1504.47,5422.47 1461.47,5380.47 1418.5,5338.5C 2483.12,5150.62 3547.79,4962.95 4612.5,4775.5 Z"/></g>
<g><path style="opacity:1" fill="#009e17" d="M 4477.5,4948.5 C 4418.16,5025.21 4358.82,5101.87 4299.5,5178.5C 3438.89,5330.42 2578.22,5482.09 1717.5,5633.5C 1660.81,5577.14 1604.14,5520.81 1547.5,5464.5C 2524.17,5292.5 3500.83,5120.5 4477.5,4948.5 Z"/></g>
<g><path style="opacity:1" fill="#009915" d="M 4299.5,5178.5 C 4191.68,5321.48 4084.34,5464.82 3977.5,5608.5C 3327.14,5723.06 2676.81,5837.73 2026.5,5952.5C 1924.2,5845.63 1821.2,5739.3 1717.5,5633.5C 2578.22,5482.09 3438.89,5330.42 4299.5,5178.5 Z"/></g>
<g><path style="opacity:1" fill="#009413" d="M 3977.5,5608.5 C 3942.73,5656.38 3907.73,5704.05 3872.5,5751.5C 3290.61,5853.65 2708.95,5956.31 2127.5,6059.5C 2093.5,6024.16 2059.83,5988.5 2026.5,5952.5C 2676.81,5837.73 3327.14,5723.06 3977.5,5608.5 Z"/></g>
<g><path style="opacity:1" fill="#009111" d="M 3872.5,5751.5 C 3810.8,5836.86 3749.13,5922.19 3687.5,6007.5C 3226.53,6088.94 2765.53,6170.27 2304.5,6251.5C 2245.53,6187.53 2186.53,6123.53 2127.5,6059.5C 2708.95,5956.31 3290.61,5853.65 3872.5,5751.5 Z"/></g>
<g><path style="opacity:1" fill="#008c0f" d="M 3687.5,6007.5 C 3600.49,6130.84 3513.49,6254.17 3426.5,6377.5C 3135.17,6428.5 2843.83,6479.5 2552.5,6530.5C 2470.58,6436.91 2387.92,6343.91 2304.5,6251.5C 2765.53,6170.27 3226.53,6088.94 3687.5,6007.5 Z"/></g>
<g><path style="opacity:1" fill="#00880d" d="M 3426.5,6377.5 C 3381.55,6443.78 3336.22,6509.78 3290.5,6575.5C 3088.18,6610.94 2885.85,6646.27 2683.5,6681.5C 2639.61,6631.39 2595.94,6581.06 2552.5,6530.5C 2843.83,6479.5 3135.17,6428.5 3426.5,6377.5 Z"/></g>
<g><path style="opacity:1" fill="#00850b" d="M 3290.5,6575.5 C 3252.5,6631.83 3214.5,6688.17 3176.5,6744.5C 3048.85,6766.94 2921.18,6789.27 2793.5,6811.5C 2756.49,6768.49 2719.82,6725.15 2683.5,6681.5C 2885.85,6646.27 3088.18,6610.94 3290.5,6575.5 Z"/></g>
<g><path style="opacity:1" fill="#00820a" d="M 3176.5,6744.5 C 3110.58,6842.01 3045.91,6940.34 2982.5,7039.5C 2981.83,7039.5 2981.17,7039.5 2980.5,7039.5C 2918.16,6963.47 2855.83,6887.47 2793.5,6811.5C 2921.18,6789.27 3048.85,6766.94 3176.5,6744.5 Z"/></g>
</svg>
